<svg width="85" height="39" viewBox="0 0 85 39" fill="none" xmlns="http://www.w3.org/2000/svg">
<path d="M46.8099 30.8896H48.6513V17H46.8099V30.8896Z" fill="#D81D99"/>
<path d="M55.1787 23.2922C56.7732 23.2922 58.0071 24.5779 58.0071 26.3312C58.0071 28.1039 56.8302 29.2922 55.0837 29.2922C53.4132 29.2922 52.2363 28.1039 52.2363 26.4286C52.2363 24.5584 53.5461 23.2922 55.1787 23.2922ZM59.0702 28.7662L59.7726 30.9091H61.6709L59.9434 25.6104C59.6017 24.539 59.279 23.5844 58.5197 22.8052C57.6465 21.9286 56.5644 21.4805 55.2356 21.4805C52.4261 21.4805 50.3759 23.6234 50.3759 26.3117C50.3759 29.1169 52.3122 31.1428 55.0837 31.1428C56.8492 31.1428 58.2349 30.3247 59.0702 28.7662Z" fill="#D81D99"/>
<path d="M62.2806 30.8896H64.084V26.6428C66.324 26.6818 67.4629 27.948 67.4629 30.461C67.4629 30.5974 67.444 30.7338 67.444 30.8896H69.2663C69.2663 30.7727 69.2663 30.6753 69.2663 30.5584C69.2663 27.7922 68.3172 26.1169 66.3809 25.474L69.2663 21.7338H67.0643L64.084 25.6493V17H62.2806V30.8896Z" fill="#D81D99"/>
<path d="M72.1307 21.7338H70.3083V26.7792C70.3083 29.6818 71.5992 31.1234 74.2568 31.1234C75.6995 31.1234 76.7436 30.6948 77.5029 29.6818C78.1673 28.8052 78.2053 27.9091 78.2053 26.7792V21.7338H76.3829V26.7402C76.3829 28.4156 75.6236 29.2922 74.2378 29.2922C72.871 29.2922 72.1307 28.4156 72.1307 26.7402V21.7338Z" fill="#D81D99"/>
<path d="M79.3296 23.3506H80.2408V26.7792C80.2408 29.3896 81.6266 30.8506 84.1513 30.8896V29.0195C82.5947 28.8636 82.0252 28.026 82.0252 26.2338V23.3506H84.0374V21.7338H82.0252V19.5714H80.2408V21.7338H79.3296V23.3506Z" fill="#D81D99"/>
<path d="M20.663 23.0584C22.2576 23.0584 23.4915 24.3441 23.4915 26.0974C23.4915 27.8701 22.3145 29.0584 20.5681 29.0584C18.8976 29.0584 17.7206 27.8701 17.7206 26.1948C17.7206 24.3247 19.0304 23.0584 20.663 23.0584ZM24.5545 28.5325L25.2569 30.6753H27.1552L25.4277 25.3766C25.0861 24.3052 24.7633 23.3506 24.004 22.5714C23.1308 21.6948 22.0488 21.2468 20.7199 21.2468C17.9104 21.2468 15.8603 23.3896 15.8603 26.0779C15.8603 28.8831 17.7965 30.9091 20.5681 30.9091C22.3335 30.9091 23.7193 30.0909 24.5545 28.5325Z" fill="#D81D99"/>
<circle cx="32.5" cy="26.5" r="3.6375" stroke="#D81D99" stroke-width="1.725"/>
<path d="M28 27C28 26.4477 28.4477 26 29 26H29.7V35H28V27Z" fill="#D81D99"/>
<path d="M41.672 22.264C42.408 22.264 43.0373 22.424 43.56 22.744C44.0933 23.064 44.4987 23.5173 44.776 24.104C45.064 24.68 45.208 25.3573 45.208 26.136V26.984H39.336C39.3573 27.9547 39.6027 28.696 40.072 29.208C40.552 29.7093 41.2187 29.96 42.072 29.96C42.616 29.96 43.096 29.912 43.512 29.816C43.9387 29.7093 44.376 29.56 44.824 29.368V30.6C44.3867 30.792 43.9547 30.9307 43.528 31.016C43.1013 31.112 42.5947 31.16 42.008 31.16C41.1973 31.16 40.4773 30.9947 39.848 30.664C39.2293 30.3333 38.744 29.8427 38.392 29.192C38.0507 28.5307 37.88 27.7253 37.88 26.776C37.88 25.8373 38.0347 25.032 38.344 24.36C38.664 23.688 39.1067 23.1707 39.672 22.808C40.248 22.4453 40.9147 22.264 41.672 22.264ZM41.656 23.416C40.984 23.416 40.4507 23.6347 40.056 24.072C39.672 24.4987 39.4427 25.096 39.368 25.864H43.736C43.7253 25.1387 43.5547 24.552 43.224 24.104C42.8933 23.6453 42.3707 23.416 41.656 23.416Z" fill="#D81D99"/>
<path d="M13.268 26.8247L14.9072 28.4948C13.3402 30.2887 11.4021 31.1856 9.09278 31.1856C6.80412 31.1856 4.89691 30.4536 3.37113 28.9897C1.86598 27.5052 1.1134 25.6392 1.1134 23.3918C1.1134 21.1237 1.8866 19.2474 3.43299 17.7629C4.97938 16.2577 6.92784 15.5052 9.27835 15.5052C11.5876 15.5052 13.5361 16.3711 15.1237 18.1031L13.5155 19.866C12.7938 19.1649 12.1134 18.6804 11.4742 18.4124C10.8351 18.1443 10.0825 18.0103 9.21649 18.0103C7.6701 18.0103 6.37113 18.5052 5.31959 19.4948C4.28866 20.4845 3.7732 21.7423 3.7732 23.268C3.7732 24.7732 4.28866 26.0515 5.31959 27.1031C6.35052 28.1546 7.57732 28.6804 9 28.6804C9.86598 28.6804 10.6082 28.5361 11.2268 28.2474C11.866 27.9588 12.5464 27.4845 13.268 26.8247Z" fill="#D81D99"/>
</svg>
