<svg width="317" height="73" viewBox="0 0 317 73" fill="none" xmlns="http://www.w3.org/2000/svg">
<path d="M174.878 57.0141H181.875V3.94873H174.878V57.0141Z" fill="#D81D99"/>
<path d="M206.679 27.9882C212.738 27.9882 217.427 32.9002 217.427 39.5987C217.427 46.3713 212.955 50.9112 206.318 50.9112C199.97 50.9112 195.498 46.3713 195.498 39.9708C195.498 32.8257 200.475 27.9882 206.679 27.9882ZM221.467 48.9016L224.136 57.0886H231.349L224.785 36.8449C223.487 32.7516 222.26 29.1045 219.375 26.1276C216.057 22.7785 211.945 21.0665 206.895 21.0665C196.219 21.0665 188.428 29.2535 188.428 39.5242C188.428 50.2415 195.786 57.9815 206.318 57.9815C213.027 57.9815 218.293 54.8559 221.467 48.9016Z" fill="#D81D99"/>
<path d="M233.666 57.0141H240.519V40.7892C249.031 40.9382 253.359 45.7757 253.359 55.3767C253.359 55.8978 253.287 56.4189 253.287 57.0141H260.212C260.212 56.5675 260.212 56.1954 260.212 55.7488C260.212 45.1805 256.605 38.78 249.247 36.3238L260.212 22.0343H251.844L240.519 36.9935V3.94873H233.666V57.0141Z" fill="#D81D99"/>
<path d="M271.097 22.0342H264.172V41.3103C264.172 52.3997 269.077 57.9073 279.176 57.9073C284.658 57.9073 288.626 56.2699 291.511 52.3997C294.036 49.0506 294.18 45.6271 294.18 41.3103V22.0342H287.255V41.1613C287.255 47.5621 284.37 50.9112 279.104 50.9112C273.91 50.9112 271.097 47.5621 271.097 41.1613V22.0342Z" fill="#D81D99"/>
<path d="M298.452 28.2113H301.915V41.3103C301.915 51.2834 307.181 56.8652 316.775 57.0142V49.8694C310.86 49.2738 308.696 46.0737 308.696 39.2266V28.2113H316.342V22.0343H308.696V13.7728H301.915V22.0343H298.452V28.2113Z" fill="#D81D99"/>
<path d="M74.2503 26.9212C80.3097 26.9212 84.9986 31.8333 84.9986 38.5318C84.9986 45.3044 80.526 49.8443 73.8896 49.8443C67.5417 49.8443 63.0691 45.3044 63.0691 38.9039C63.0691 31.7592 68.0464 26.9212 74.2503 26.9212ZM89.038 47.8351L91.7071 56.0217H98.9206L92.3561 35.778C91.058 31.6847 89.8314 28.0376 86.9461 25.0607C83.6279 21.7116 79.5163 20 74.4665 20C63.7904 20 56 28.1866 56 38.4573C56 49.1746 63.3576 56.915 73.8896 56.915C80.5982 56.915 85.8642 53.789 89.038 47.8351Z" fill="#D81D99"/>
<path d="M120.5 54.1407C128.134 54.1407 134.323 47.9187 134.323 40.2436C134.323 32.5684 128.134 26.3464 120.5 26.3464C112.866 26.3464 106.677 32.5684 106.677 40.2436C106.677 47.9187 112.866 54.1407 120.5 54.1407Z" stroke="#D81D99" stroke-width="7"/>
<path d="M103.4 42.1538C103.4 40.0438 105.101 38.3333 107.2 38.3333H109.86V72.7179H103.4V42.1538Z" fill="#D81D99"/>
<path d="M155.41 23C158.206 23 160.598 23.6113 162.584 24.8338C164.611 26.0564 166.151 27.7882 167.205 30.0297C168.299 32.2304 168.846 34.818 168.846 37.793V41.0328H146.533C146.614 44.7414 147.546 47.5735 149.33 49.5296C151.154 51.4448 153.687 52.4026 156.93 52.4026C158.997 52.4026 160.821 52.2193 162.402 51.8525C164.023 51.4448 165.685 50.8744 167.387 50.1409V54.8478C165.725 55.5813 164.084 56.1112 162.462 56.4371C160.841 56.8039 158.916 56.9873 156.686 56.9873C153.606 56.9873 150.87 56.3557 148.478 55.0923C146.127 53.8288 144.283 51.9545 142.946 49.4685C141.649 46.942 141 43.8649 141 40.2381C141 36.6518 141.588 33.5752 142.763 31.0078C143.979 28.4404 145.661 26.4641 147.81 25.0784C149.998 23.6927 152.532 23 155.41 23ZM155.349 27.4012C152.795 27.4012 150.769 28.2368 149.269 29.9075C147.81 31.5377 146.938 33.8197 146.654 36.7538H163.253C163.212 33.9828 162.564 31.7413 161.307 30.0297C160.051 28.2773 158.065 27.4012 155.349 27.4012Z" fill="#D81D99"/>
<path d="M46.5957 43.2463L52.8246 49.6269C46.87 56.4805 39.5053 59.9072 30.7298 59.9072C22.0329 59.9072 14.7855 57.1105 8.98757 51.5177C3.268 45.8461 0.408195 38.7171 0.408195 30.1308C0.408195 21.4655 3.34636 14.2971 9.22264 8.62557C15.0989 2.87493 22.5031 0 31.435 0C40.2102 0 47.6145 3.30818 53.6473 9.92531L47.5362 16.6605C44.7937 13.9819 42.2082 12.1309 39.7792 11.107C37.3507 10.0827 34.4908 9.57076 31.1999 9.57076C25.3237 9.57076 20.3876 11.4615 16.3917 15.2423C12.4742 19.0235 10.5154 23.8289 10.5154 29.6579C10.5154 35.4085 12.4742 40.2923 16.3917 44.3099C20.3093 48.3272 24.9711 50.336 30.3773 50.336C33.668 50.336 36.4884 49.7847 38.8391 48.6817C41.2681 47.5791 43.8536 45.7671 46.5957 43.2463Z" fill="#D81D99"/>
</svg>
