<svg width="315" height="70" viewBox="0 0 315 70" fill="none" xmlns="http://www.w3.org/2000/svg">
<path d="M166.893 55.0853H174.149V0.611084H166.893V55.0853Z" fill="#D81D99"/>
<path d="M199.869 25.2887C206.152 25.2887 211.014 30.3312 211.014 37.2075C211.014 44.1599 206.377 48.8203 199.494 48.8203C192.912 48.8203 188.275 44.1599 188.275 37.5895C188.275 30.2547 193.436 25.2887 199.869 25.2887ZM215.203 46.7574L217.971 55.1617H225.45L218.644 34.3806C217.298 30.1786 216.025 26.4347 213.034 23.3788C209.593 19.9407 205.329 18.1833 200.093 18.1833C189.023 18.1833 180.944 26.5876 180.944 37.131C180.944 48.1328 188.574 56.0783 199.494 56.0783C206.451 56.0783 211.912 52.8697 215.203 46.7574Z" fill="#D81D99"/>
<path d="M227.853 55.0853H234.959V38.4296C243.785 38.5826 248.273 43.5485 248.273 53.4044C248.273 53.9394 248.198 54.4743 248.198 55.0853H255.379C255.379 54.6268 255.379 54.2449 255.379 53.7864C255.379 42.9375 251.639 36.3671 244.009 33.8457L255.379 19.1768H246.702L234.959 34.5332V0.611084H227.853V55.0853Z" fill="#D81D99"/>
<path d="M266.666 19.1767H259.485V38.9646C259.485 50.3484 264.571 56.0022 275.043 56.0022C280.728 56.0022 284.842 54.3213 287.834 50.3484C290.452 46.9103 290.601 43.396 290.601 38.9646V19.1767H283.421V38.8116C283.421 45.3823 280.429 48.8203 274.969 48.8203C269.583 48.8203 266.666 45.3823 266.666 38.8116V19.1767Z" fill="#D81D99"/>
<path d="M295.031 25.5178H298.622V38.9646C298.622 49.2024 304.083 54.9324 314.031 55.0854V47.7509C307.897 47.1395 305.654 43.8544 305.654 36.8256V25.5178H313.582V19.1768H305.654V10.696H298.622V19.1768H295.031V25.5178Z" fill="#D81D99"/>
<path d="M60.4755 24.1934C66.7587 24.1934 71.6207 29.236 71.6207 36.1123C71.6207 43.0647 66.9829 47.7251 60.1014 47.7251C53.5191 47.7251 48.8813 43.0647 48.8813 36.4943C48.8813 29.1599 54.0424 24.1934 60.4755 24.1934ZM75.8093 45.6626L78.577 54.0665H86.0569L79.2499 33.2854C77.9039 29.0834 76.632 25.3395 73.6401 22.2836C70.1994 18.8455 65.9359 17.0885 60.6996 17.0885C49.6293 17.0885 41.5511 25.4924 41.5511 36.0358C41.5511 47.0376 49.1805 54.9835 60.1014 54.9835C67.0578 54.9835 72.5183 51.7746 75.8093 45.6626Z" fill="#D81D99"/>
<path d="M25.3646 55.7894C17.719 55.7894 11.646 53.466 7.14574 48.8191C2.69385 44.1244 0.467896 37.4655 0.467896 28.8425C0.467896 20.3152 2.62126 13.7043 6.92798 9.00955C11.2831 4.2669 17.3561 1.89557 25.1469 1.89557C28.7277 1.89557 31.728 2.11114 34.1474 2.54229C35.3088 2.73395 36.2766 3.30882 37.0508 4.2669C37.8251 5.22497 38.2122 6.30285 38.2122 7.50052V8.07539C38.2122 9.08141 37.7767 9.87185 36.9057 10.4467C36.0831 11.0216 35.1878 11.1892 34.22 10.9497C31.8489 10.3269 29.1875 10.0156 26.2356 10.0156C21.445 10.0156 17.6706 11.6444 14.9124 14.9019C12.2025 18.1595 10.8476 22.8064 10.8476 28.8425C10.8476 34.8306 12.2509 39.4775 15.0575 42.783C17.9125 46.0405 21.7112 47.6694 26.4534 47.6694C29.6472 47.6694 32.3812 47.3819 34.6555 46.8071C35.6233 46.5676 36.5186 46.7352 37.3412 47.3101C38.2122 47.8849 38.6477 48.6754 38.6477 49.6814V50.1844C38.6477 51.3821 38.2606 52.46 37.4864 53.418C36.7605 54.3283 35.7927 54.8791 34.5829 55.0708C31.8247 55.5499 28.752 55.7894 25.3646 55.7894ZM98.8057 33.1848V42.2595C98.8057 44.0388 99.5696 45.618 101.097 46.997C102.67 48.3759 104.49 49.0655 106.556 49.0655C108.938 49.0655 110.825 48.109 112.218 46.1963C113.612 44.2835 114.307 41.4588 114.307 37.7221C114.307 30.1598 111.724 26.3788 106.556 26.3788C104.49 26.3788 102.67 27.0683 101.097 28.4472C99.5696 29.8262 98.8057 31.4055 98.8057 33.1848ZM93.7507 69.7504C92.7172 69.7504 91.8186 69.3724 91.0547 68.6161C90.2908 67.8598 89.9089 66.9702 89.9089 65.9471V24.1768C89.9089 23.1536 90.2908 22.264 91.0547 21.5078C91.8186 20.7515 92.7172 20.3734 93.7507 20.3734H94.5595C95.6379 20.3734 96.559 20.7515 97.3229 21.5078C98.0868 22.2195 98.4912 23.1092 98.5361 24.1768V24.6439C98.5361 24.6883 98.5586 24.7106 98.6035 24.7106C98.6484 24.7106 98.6934 24.6883 98.7383 24.6439C100.356 22.8646 101.973 21.5968 103.591 20.8405C105.208 20.0843 107.096 19.7062 109.252 19.7062C113.477 19.7062 116.847 21.2853 119.362 24.4437C121.879 27.5575 123.137 31.9837 123.137 37.7221C123.137 43.2826 121.812 47.6865 119.16 50.9338C116.554 54.1366 113.252 55.738 109.252 55.738C105.343 55.738 101.951 54.3368 99.0753 51.5343C99.0304 51.4899 98.9854 51.4676 98.9405 51.4676C98.8956 51.4676 98.8731 51.4899 98.8731 51.5343V65.9471C98.8731 66.9702 98.4912 67.8598 97.7273 68.6161C97.0084 69.3724 96.1322 69.7504 95.0987 69.7504H93.7507ZM145.336 25.9117C143.044 25.9117 141.27 26.5567 140.011 27.8467C138.798 29.0922 138.035 31.1163 137.719 33.9188C137.719 34.2747 137.9 34.4526 138.258 34.4526H151.469C151.829 34.4526 152.008 34.2747 152.008 33.9188C151.829 28.5807 149.605 25.9117 145.336 25.9117ZM147.021 55.738C141.135 55.738 136.596 54.2256 133.406 51.2007C130.261 48.1313 128.688 43.6384 128.688 37.7221C128.688 31.8503 130.103 27.3796 132.934 24.3103C135.765 21.2409 139.854 19.7062 145.201 19.7062C155.176 19.7062 160.298 25.3111 160.568 36.5211C160.614 37.5887 160.231 38.4784 159.422 39.1901C158.613 39.9018 157.67 40.2577 156.591 40.2577H138.191C137.787 40.2577 137.63 40.4579 137.719 40.8582C138.035 43.8386 139.023 46.0184 140.685 47.3973C142.393 48.7319 144.864 49.3991 148.099 49.3991C150.121 49.3991 152.368 49.0655 154.839 48.3982C155.648 48.1758 156.389 48.3092 157.063 48.7986C157.783 49.2879 158.142 49.9552 158.142 50.8003C158.142 51.8235 157.827 52.7354 157.198 53.5361C156.614 54.2924 155.828 54.7594 154.839 54.9373C152.323 55.4711 149.717 55.738 147.021 55.738Z" fill="#D81D99"/>
</svg>
